<svg id="Layer_1" data-name="Layer 1" xmlns="http://www.w3.org/2000/svg" viewBox="0 0 165.82 68"><defs><style>.cls-1{fill:#073480;}.cls-2{fill:#522fb6;}.cls-3{fill:none;stroke:#073480;stroke-miterlimit:10;stroke-width:0.5px;}.cls-4{fill:#1a1a1a;}</style></defs><title>logo</title><circle class="cls-1" cx="2.62" cy="29.53" r="2.62"/><circle class="cls-2" cx="10.49" cy="29.53" r="2.62"/><path class="cls-1" d="M2.83.26A.25.25,0,0,1,3.09,0h7.27c4,0,5.83,1.92,5.83,4.75A4.08,4.08,0,0,1,14,8.59v.05a4.24,4.24,0,0,1,2.49,4.07c0,3.49-2.47,5.15-6.22,5.15H3.09a.25.25,0,0,1-.26-.26ZM9.47,7.17c1.39,0,2.13-.6,2.13-1.84s-.71-1.84-2.13-1.84H7.61a.14.14,0,0,0-.16.16V7a.14.14,0,0,0,.16.16ZM7.61,14.36h2.1c1.44,0,2.18-.71,2.18-2s-.74-2-2.18-2H7.61a.14.14,0,0,0-.16.16v3.7A.14.14,0,0,0,7.61,14.36Z"/><path class="cls-1" d="M29.86,17.85a.36.36,0,0,1-.39-.26l-2.7-6.09H25.05a.14.14,0,0,0-.16.16v5.93a.25.25,0,0,1-.26.26h-4.1a.25.25,0,0,1-.26-.26V.26A.25.25,0,0,1,20.54,0h7.27c4.1,0,6.43,2.39,6.43,5.75a5.33,5.33,0,0,1-2.94,5l3.28,6.8a.2.2,0,0,1-.18.32ZM29.62,5.8a1.86,1.86,0,0,0-2.1-1.89H25.05a.14.14,0,0,0-.16.16V7.54a.14.14,0,0,0,.16.16h2.47A1.86,1.86,0,0,0,29.62,5.8Z"/><path class="cls-1" d="M16.18,21a.24.24,0,0,1,.26-.26h3.82a.42.42,0,0,1,.44.26l4,9.16h.1L28.79,21a.42.42,0,0,1,.44-.26H33a.24.24,0,0,1,.26.26V38a.24.24,0,0,1-.26.26H29.41a.24.24,0,0,1-.26-.26V29H29l-2.81,6.55a.55.55,0,0,1-.49.33h-2a.57.57,0,0,1-.49-.33L20.41,29h-.13v9a.24.24,0,0,1-.26.26H16.44a.24.24,0,0,1-.26-.26Z"/><path class="cls-1" d="M37.87,21a.24.24,0,0,1,.26-.26H49.6a.24.24,0,0,1,.26.26v3.33a.24.24,0,0,1-.26.26h-7a.14.14,0,0,0-.15.15v2.66a.14.14,0,0,0,.15.15h5.78a.24.24,0,0,1,.26.26v3.25a.24.24,0,0,1-.26.26H42.56a.14.14,0,0,0-.15.15V34.3a.14.14,0,0,0,.15.15h7a.24.24,0,0,1,.26.26V38a.24.24,0,0,1-.26.26H38.13a.24.24,0,0,1-.26-.26Z"/><path class="cls-1" d="M4.87,41.68a.24.24,0,0,1,.26-.26h6.78c3.09,0,5.36,1.29,6.24,4a14,14,0,0,1,.52,4.77A14.12,14.12,0,0,1,18.15,55c-.88,2.71-3.15,4-6.24,4H5.13a.24.24,0,0,1-.26-.26ZM9.56,54.94h1.37c1.6,0,2.48-.44,2.89-1.68a10.17,10.17,0,0,0,.26-3.07,10.17,10.17,0,0,0-.26-3.07c-.41-1.24-1.29-1.68-2.89-1.68H9.56a.14.14,0,0,0-.15.15v9.18A.14.14,0,0,0,9.56,54.94Z"/><path class="cls-1" d="M23.4,41.68a.24.24,0,0,1,.26-.26h4a.24.24,0,0,1,.26.26v17a.24.24,0,0,1-.26.26h-4a.24.24,0,0,1-.26-.26Z"/><path class="cls-1" d="M38.88,41.68a.33.33,0,0,1,.34-.26h4.2a.33.33,0,0,1,.34.26l5.93,17a.18.18,0,0,1-.18.26H45.25a.33.33,0,0,1-.34-.26L44.09,56h-5.7l-.83,2.71a.33.33,0,0,1-.34.26H33a.18.18,0,0,1-.18-.26ZM43,52.23l-1.62-5.47h-.08l-1.7,5.47Z"/><path d="M5.11,65.35a4.64,4.64,0,0,1,.14-1.45A1.7,1.7,0,0,1,7,62.7a1.76,1.76,0,0,1,1.71,1,.07.07,0,0,1,0,.11L8.23,64a.07.07,0,0,1-.11,0A1.16,1.16,0,0,0,7,63.33a1.06,1.06,0,0,0-1.11.76,7.58,7.58,0,0,0,0,2.52A1.06,1.06,0,0,0,7,67.37a1.09,1.09,0,0,0,1.1-.74,2.75,2.75,0,0,0,.1-.81,0,0,0,0,0,0,0h-1a.07.07,0,0,1-.08-.08v-.44a.07.07,0,0,1,.08-.08H8.8a.07.07,0,0,1,.08.08v.38a4.33,4.33,0,0,1-.13,1.13A1.72,1.72,0,0,1,7,68a1.7,1.7,0,0,1-1.76-1.2A4.64,4.64,0,0,1,5.11,65.35Z"/><path d="M18.6,67.92c-.05,0-.08,0-.1-.08l-1-2.1H16.34a0,0,0,0,0,0,0v2.05a.07.07,0,0,1-.08.08H15.7a.07.07,0,0,1-.08-.08v-5a.07.07,0,0,1,.08-.08h1.86a1.46,1.46,0,0,1,1.61,1.48,1.4,1.4,0,0,1-1,1.4l1.09,2.17a.05.05,0,0,1,0,.09Zm-.11-3.66c0-.54-.35-.85-1-.85h-1.2a0,0,0,0,0,0,0v1.62a0,0,0,0,0,0,0h1.2C18.14,65.12,18.5,64.8,18.5,64.26Z"/><path d="M25.89,66.8a7.81,7.81,0,0,1,0-2.9,1.87,1.87,0,0,1,3.5,0,7.81,7.81,0,0,1,0,2.9,1.87,1.87,0,0,1-3.5,0Zm2.84-.19a7.08,7.08,0,0,0,0-2.52,1.16,1.16,0,0,0-2.18,0,7.08,7.08,0,0,0,0,2.52,1.16,1.16,0,0,0,2.18,0Z"/><path d="M36.23,66.13V62.86a.07.07,0,0,1,.08-.08h.52a.07.07,0,0,1,.08.08v3.26a1.15,1.15,0,1,0,2.29,0V62.86a.07.07,0,0,1,.08-.08h.52a.07.07,0,0,1,.08.08v3.27a1.82,1.82,0,1,1-3.63,0Z"/><path d="M46.83,67.92a.07.07,0,0,1-.08-.08v-5a.07.07,0,0,1,.08-.08h1.83a1.54,1.54,0,1,1,0,3.07H47.48a0,0,0,0,0,0,0v1.95a.07.07,0,0,1-.08.08Zm2.79-3.6a.88.88,0,0,0-1-.91H47.48a0,0,0,0,0,0,0v1.72a0,0,0,0,0,0,0h1.15A.88.88,0,0,0,49.63,64.31Z"/><line class="cls-3" x1="63.32" x2="63.32" y2="68"/><path class="cls-4" d="M76.35,5.3l.71,1L78,7.64l1,1.44,1,1.42.89,1.25.66.93L82,12l.82-1.18,1-1.46L85,7.78l1-1.41.77-1.07V16.49H85.68V8.85a2.79,2.79,0,0,1,0-.28c0-.1,0-.19,0-.26l-.61.86-.74,1.07-.79,1.16-.78,1.15-.7,1-.53.79q-.21-.27-.57-.77l-.79-1.12-.89-1.29-.86-1.25-.71-1-.41-.61a1.82,1.82,0,0,0,0,.26,1.9,1.9,0,0,1,0,.28v7.64h-1Z"/><path class="cls-4" d="M96.74,16.49q-.3-.69-.7-1.69t-.84-2.13H91.08q-.44,1.13-.84,2.13t-.71,1.69h-1l.6-1.43.81-2,.9-2.21.9-2.21.8-2,.61-1.44q.22.56.6,1.44t.81,2l.91,2.21.91,2.21.8,2q.37.89.61,1.43ZM93,7.91q-.3.71-.71,1.73t-.85,2.15h3.42L94,9.63q-.41-1-.71-1.73a1.45,1.45,0,0,1-.08-.2c0-.09-.06-.18-.07-.26l-.08.26A1.45,1.45,0,0,1,93,7.91Z"/><path class="cls-4" d="M106,16.49q-1.12-1.42-2.16-2.77l-2.16-2.78-.54.53-.55.51q0,1.17,0,2.26t0,2.26H99.51V5.78h1.13v4.5a2,2,0,0,1,0,.24l0,.25.14-.18.14-.18q1.2-1.12,2.35-2.31t2.35-2.32h1.32L104.72,8l-2.21,2.23q1.26,1.6,2.42,3.13t2.4,3.13Z"/><path class="cls-4" d="M108.87,16.49V5.78h6.75v.93h-5.73v3.92H115v1h-5.13v3.94h5.94v1Z"/><path class="cls-4" d="M76.35,27.78h1V38.49h-1Z"/><path class="cls-4" d="M86.3,27.78v1H83.45v9.74h-1V28.75H79.59v-1Z"/><path class="cls-4" d="M76.35,60.49V49.78h1v9.74h5.7v1Z"/><path class="cls-4" d="M84.83,60.49V49.78h6.75v.93H85.85v3.92H91v1H85.85v3.94h5.94v1Z"/><path class="cls-4" d="M101.49,55.58v4.26a5.45,5.45,0,0,1-1.4.56,6.45,6.45,0,0,1-1.63.2,6,6,0,0,1-2.27-.41,5.1,5.1,0,0,1-1.72-1.13,5,5,0,0,1-1.1-1.7,5.68,5.68,0,0,1,1.25-6.12,5.45,5.45,0,0,1,1.77-1.17,5.52,5.52,0,0,1,2.14-.42,6.4,6.4,0,0,1,1.55.2,4.94,4.94,0,0,1,1.4.57l-.51.84a4.29,4.29,0,0,0-1.16-.47,5.17,5.17,0,0,0-1.3-.17,4.25,4.25,0,0,0-1.73.36,4.74,4.74,0,0,0-1.44,1A4.56,4.56,0,0,0,94,55.2a4.58,4.58,0,0,0,.32,1.71,4.32,4.32,0,0,0,.91,1.42,4.26,4.26,0,0,0,1.41,1,4.6,4.6,0,0,0,1.83.35,5.17,5.17,0,0,0,1-.11,4.88,4.88,0,0,0,1-.34v-2.7H98.24v-.9Z"/><path class="cls-4" d="M104,60.49V49.78h6.75v.93H105v3.92h5.13v1H105v3.94H111v1Z"/><path class="cls-4" d="M122.3,49.78V61q-.44-.52-1.07-1.25l-1.38-1.55-1.53-1.69-1.52-1.69q-.74-.82-1.34-1.54t-1-1.24l-.14-.17-.17-.22,0,.48v8.37h-1V49.29q.44.55,1.07,1.27t1.37,1.53l1.52,1.67,1.51,1.66L120,56.93q.63.71,1,1.24a.78.78,0,0,0,.12.19l.17.22,0-.5V49.78Z"/><path class="cls-4" d="M125.37,49.78h2.49a6.8,6.8,0,0,1,2.74.5,5.29,5.29,0,0,1,1.83,1.27,4.8,4.8,0,0,1,1,1.75,6.16,6.16,0,0,1,.32,1.91,5.32,5.32,0,0,1-.44,2.19,5,5,0,0,1-2.88,2.72,5.82,5.82,0,0,1-2.07.37h-3Zm2.91,9.74a5,5,0,0,0,1.75-.3,4.2,4.2,0,0,0,1.42-.86,4,4,0,0,0,1-1.37,4.92,4.92,0,0,0,0-3.56,4,4,0,0,0-.92-1.39,4.37,4.37,0,0,0-1.44-.92,5,5,0,0,0-1.89-.34h-1.77v8.75Z"/><path class="cls-4" d="M142.61,60.49q-.3-.69-.7-1.7t-.84-2.13H137q-.44,1.13-.84,2.13t-.71,1.7h-1l.6-1.43q.38-.89.81-2l.9-2.21.9-2.21.8-2q.37-.88.61-1.44.23.55.6,1.44t.81,2l.91,2.21.91,2.21.8,2q.37.89.61,1.43Zm-3.75-8.58q-.3.7-.71,1.72t-.85,2.14h3.42l-.86-2.14q-.4-1-.71-1.72a1.48,1.48,0,0,1-.08-.2c0-.09-.06-.18-.08-.26,0,.08,0,.17-.07.26A1.45,1.45,0,0,1,138.86,51.91Z"/><path class="cls-4" d="M145.38,60.49V49.78H148a4.55,4.55,0,0,1,1.3.19,3.25,3.25,0,0,1,1.12.58,2.88,2.88,0,0,1,.78,1,3.1,3.1,0,0,1,.29,1.39,3.78,3.78,0,0,1-.4,1.71,2.71,2.71,0,0,1-1.34,1.24l.36.6.49.82.56.92.56.92.5.79.36.57h-1.25L151,60l-.43-.71-.51-.82-.52-.86-.49-.79-.4-.64a1.64,1.64,0,0,1-.31,0H146.4v4.29Zm1-5.27H148a2.67,2.67,0,0,0,1.2-.24,2.2,2.2,0,0,0,.76-.59,2.17,2.17,0,0,0,.39-.75,2.65,2.65,0,0,0,.11-.73,2.1,2.1,0,0,0-.16-.79,2.13,2.13,0,0,0-.46-.7,2.2,2.2,0,0,0-.76-.49,2.83,2.83,0,0,0-1.07-.19H146.4Z"/><path class="cls-4" d="M157.61,56.75v3.74h-1V56.75l-.52-.88q-.32-.55-.7-1.21l-.79-1.39-.79-1.4-.69-1.21-.51-.88h1.16l.66,1.14.83,1.46.88,1.57.8,1.46.18.45.18-.45q.38-.66.81-1.46l.86-1.57.81-1.46q.38-.69.65-1.14h1.17Z"/></svg>